<svg width="60" height="60" viewBox="0 0 60 60" fill="none" xmlns="http://www.w3.org/2000/svg">
<g id="moving-home_11147826 1">
<g id="Group">
<g id="Group_2">
<g id="Group_3">
<g id="Group_4">
<g id="Group_5">
<g id="Group_6">
<g id="Group_7">
<g id="Group_8">
<g id="Group_9">
<path id="Vector" d="M34.8305 20.2458V40.415C34.8305 41.4402 33.9948 42.2759 32.9584 42.2759H6.78289C5.74657 42.2759 4.91083 41.4402 4.91083 40.415V20.2458L19.8762 5.11322L34.8305 20.2458Z" fill="white"/>
<path id="Vector_2" d="M32.9583 42.8425H6.78288C5.43854 42.8425 4.3446 41.7536 4.3446 40.4147V20.2463C4.3446 20.0971 4.4032 19.9545 4.50822 19.8483L19.474 4.71568C19.5801 4.60844 19.7249 4.54764 19.8764 4.54764C20.0278 4.54764 20.1727 4.60844 20.2788 4.71568L35.2329 19.8483C35.3379 19.9545 35.3965 20.0971 35.3965 20.2463V40.4147C35.3965 41.7536 34.3026 42.8425 32.9583 42.8425ZM5.47668 20.4785V40.4147C5.47668 41.1289 6.06262 41.7104 6.78288 41.7104H32.9583C33.6785 41.7104 34.2645 41.1289 34.2645 40.4147V20.4785L19.8764 5.91851L5.47668 20.4785Z" fill="black"/>
</g>
<g id="Group_10">
<g id="Group_11">
<path id="Vector_3" d="M4.80762 22.3146C4.21698 22.3146 3.62943 22.067 3.21341 21.5848C2.45432 20.705 2.55293 19.3763 3.43323 18.6177L18.5032 5.62374C19.2921 4.94271 20.462 4.94322 21.2509 5.62425L36.3096 18.6182C37.1889 19.3773 37.2864 20.7055 36.5284 21.5853C35.7693 22.4651 34.4401 22.5627 33.5608 21.8036L19.8755 9.99496L6.17995 21.8041C5.78345 22.1466 5.29451 22.3146 4.80762 22.3146Z" fill="#AF7EFF"/>
<path id="Vector_4" d="M4.80782 22.8808C4.02951 22.8808 3.29267 22.5437 2.78523 21.9544C2.31924 21.4149 2.0915 20.7261 2.14401 20.0142C2.19652 19.3033 2.52321 18.6544 3.06382 18.1889L18.1335 5.19438C19.1268 4.33759 20.6265 4.33869 21.6209 5.19549L36.6795 18.1889C37.7928 19.1507 37.9172 20.84 36.9575 21.9544C35.9946 23.0699 34.3065 23.1926 33.191 22.233L19.8758 10.742L6.5496 22.233C6.06648 22.6509 5.44737 22.8808 4.80782 22.8808ZM19.8758 5.68193C19.5176 5.68193 19.1589 5.80464 18.8731 6.05228L3.80288 19.0468C3.49167 19.3144 3.30317 19.688 3.27277 20.0982C3.24292 20.5072 3.37393 20.9041 3.64202 21.2148C4.17489 21.8328 5.1942 21.9091 5.80944 21.3762L19.506 9.5657C19.7183 9.38218 20.0333 9.38218 20.2456 9.5657L33.9306 21.3751C34.5723 21.9301 35.5452 21.8571 36.1002 21.2148C36.653 20.5736 36.5811 19.6007 35.9393 19.0457L20.8813 6.05339C20.5944 5.80575 20.2351 5.68193 19.8758 5.68193Z" fill="black"/>
</g>
</g>
<g id="Group_12">
<path id="Vector_5" d="M17.69 32.2262V42.2761H9.20093V32.2262C9.20093 30.9521 10.2362 29.9327 11.5104 29.9327H15.3806C16.6547 29.9327 17.69 30.968 17.69 32.2262Z" fill="#283E42"/>
<path id="Vector_6" d="M17.6901 42.8425H9.20068C8.88781 42.8425 8.63464 42.5894 8.63464 42.2765V32.226C8.63464 30.6495 9.92481 29.3671 11.5102 29.3671H15.3807C16.966 29.3671 18.2562 30.6495 18.2562 32.226V42.2765C18.2562 42.5894 18.003 42.8425 17.6901 42.8425ZM9.76672 41.7104H17.1241V32.226C17.1241 31.2741 16.3419 30.4991 15.3807 30.4991H11.5102C10.5489 30.4991 9.76672 31.2741 9.76672 32.226V41.7104Z" fill="black"/>
</g>
<g id="Group_13">
<g id="Group_14">
<path id="Vector_7" d="M29.9401 29.9715V37.375C29.9401 38.1236 29.3394 38.7244 28.5907 38.7244H24.0248C23.2761 38.7244 22.6753 38.1236 22.6753 37.375V29.9715C22.6753 29.2228 23.2761 28.622 24.0248 28.622H28.5907C29.3394 28.622 29.9401 29.2228 29.9401 29.9715Z" fill="#DDDDDD"/>
<path id="Vector_8" d="M28.5907 39.2904H24.0248C22.9685 39.2904 22.1095 38.4314 22.1095 37.3745V29.9718C22.1095 28.9149 22.9685 28.0559 24.0248 28.0559H28.5907C29.6471 28.0559 30.5061 28.9149 30.5061 29.9718V37.3745C30.5061 38.4314 29.6471 39.2904 28.5907 39.2904ZM24.0248 29.188C23.5854 29.188 23.2416 29.5318 23.2416 29.9718V37.3745C23.2416 37.8145 23.5854 38.1584 24.0248 38.1584H28.5907C29.0302 38.1584 29.374 37.8145 29.374 37.3745V29.9718C29.374 29.5318 29.0302 29.188 28.5907 29.188H24.0248Z" fill="black"/>
</g>
</g>
</g>
</g>
</g>
</g>
<g id="Group_15">
<path id="Vector_9" d="M19.8701 23.6943C21.9946 23.6943 23.7169 21.972 23.7169 19.8475C23.7169 17.723 21.9946 16.0007 19.8701 16.0007C17.7456 16.0007 16.0233 17.723 16.0233 19.8475C16.0233 21.972 17.7456 23.6943 19.8701 23.6943Z" fill="#283E42"/>
</g>
</g>
</g>
</g>
<g id="Group_16">
<g id="Group_17">
<g id="Group_18">
<path id="Vector_10" d="M56.8895 36.9372L50.8919 25.6697C50.2855 24.523 49.0948 23.8064 47.7939 23.8064H43.8616V53.4074C44.9051 54.3208 46.264 54.886 47.7608 54.886C50.8919 54.886 53.4497 52.4604 53.6591 49.3956H53.7805C55.7209 49.3956 57.2975 47.8189 57.2975 45.8785V38.5799C57.2975 38.0068 57.1541 37.4445 56.8895 36.9372Z" fill="black"/>
<path id="Vector_11" d="M47.7609 55.4523C46.1988 55.4523 44.6815 54.8775 43.4886 53.8327C43.3659 53.7255 43.2957 53.5707 43.2957 53.4071V23.8062C43.2957 23.4933 43.5488 23.2401 43.8617 23.2401H47.7941C49.3076 23.2401 50.6862 24.0704 51.3921 25.4059L57.3891 36.6703C57.3897 36.6725 57.3908 36.6736 57.3913 36.6747C57.7003 37.2673 57.8634 37.9251 57.8634 38.5795V45.8783C57.8634 47.9988 56.2388 49.7466 54.1687 49.9423C53.7027 53.071 50.9814 55.4523 47.7609 55.4523ZM44.4277 53.1429C45.3818 53.9035 46.5559 54.3203 47.7609 54.3203C50.5613 54.3203 52.9039 52.1401 53.0941 49.3564C53.1145 49.059 53.3616 48.829 53.659 48.829H53.7806C55.4074 48.829 56.7313 47.5057 56.7313 45.8783V38.5795C56.7313 38.1075 56.613 37.631 56.3886 37.2009L50.3921 25.9366C49.8819 24.9714 48.8869 24.3722 47.7941 24.3722H44.4277V53.1429Z" fill="black"/>
</g>
<g id="Group_19">
<path id="Vector_12" d="M53.9899 38.5799V45.8785C53.9899 47.8189 52.4133 49.3956 50.4729 49.3956H34.9165V26.0224C34.9165 24.7986 35.9088 23.8064 37.1325 23.8064H44.4863C45.7872 23.8064 46.9779 24.523 47.5843 25.6697L53.582 36.9372C53.8465 37.4445 53.9899 38.0068 53.9899 38.5799Z" fill="#AF7EFF"/>
<path id="Vector_13" d="M50.4728 49.9611H34.9167C34.6039 49.9611 34.3507 49.7079 34.3507 49.3951V26.0228C34.3507 24.4883 35.5989 23.2401 37.1328 23.2401H44.4863C45.9998 23.2401 47.3784 24.0693 48.0849 25.4059L54.0819 36.6703C54.3931 37.2684 54.5562 37.9262 54.5562 38.5795V45.8783C54.5562 48.1292 52.7243 49.9611 50.4728 49.9611ZM35.4828 48.829H50.4728C52.1002 48.829 53.4241 47.5057 53.4241 45.8783V38.5795C53.4241 38.1075 53.3052 37.6299 53.0803 37.1976L47.0849 25.9366C46.5747 24.9714 45.5791 24.3722 44.4863 24.3722H37.1328C36.2229 24.3722 35.4828 25.1129 35.4828 26.0228V48.829Z" fill="black"/>
</g>
<g id="Group_20">
<path id="Vector_14" d="M48.2057 35.7997H38.8344C38.4927 35.7997 38.217 35.524 38.217 35.1823V27.7404C38.217 27.3986 38.4927 27.123 38.8344 27.123H44.2367C44.4682 27.123 44.6777 27.2442 44.7879 27.4427L48.7459 34.8956C48.9665 35.3035 48.6688 35.7997 48.2057 35.7997Z" fill="white"/>
<path id="Vector_15" d="M48.2059 36.3662H38.8342C38.1814 36.3662 37.6508 35.8356 37.6508 35.1822V27.7408C37.6508 27.0874 38.1814 26.5568 38.8342 26.5568H44.2365C44.6715 26.5568 45.0723 26.79 45.2823 27.1659L49.2457 34.6305C49.443 34.9954 49.4336 35.4298 49.2186 35.7903C49.0036 36.1507 48.6249 36.3662 48.2059 36.3662ZM38.8342 27.6888L38.7828 35.1822L48.2059 35.2342C48.2142 35.2342 48.2325 35.2342 48.2463 35.2098L44.2884 27.7076L38.8342 27.6888Z" fill="black"/>
</g>
<g id="Group_21">
<path id="Vector_16" d="M34.9055 42.2183V49.3956H5.61198C4.24489 49.3956 3.13135 48.2931 3.13135 46.915V43.7177C3.13135 42.8908 3.8149 42.2183 4.64177 42.2183H34.9055Z" fill="#AF7EFF"/>
<path id="Vector_17" d="M34.9057 49.9611H5.61212C3.93225 49.9611 2.56525 48.5947 2.56525 46.9153V43.7181C2.56525 42.5783 3.49667 41.6519 4.64201 41.6519H34.9057C35.2185 41.6519 35.4717 41.905 35.4717 42.2179V49.3951C35.4717 49.7079 35.2185 49.9611 34.9057 49.9611ZM4.64201 42.7839C4.1213 42.7839 3.69732 43.2029 3.69732 43.7181V46.9153C3.69732 47.97 4.55633 48.829 5.61212 48.829H34.3396V42.7839H4.64201Z" fill="black"/>
</g>
<g id="Group_22">
<path id="Vector_18" d="M13.4525 54.8875C16.7255 54.8875 19.3789 52.2342 19.3789 48.9611C19.3789 45.688 16.7255 43.0347 13.4525 43.0347C10.1794 43.0347 7.52606 45.688 7.52606 48.9611C7.52606 52.2342 10.1794 54.8875 13.4525 54.8875Z" fill="#283E42"/>
<path id="Vector_19" d="M13.4521 55.4523C9.87233 55.4523 6.95978 52.5403 6.95978 48.9606C6.95978 45.3808 9.87233 42.4688 13.4521 42.4688C17.0318 42.4688 19.9438 45.3808 19.9438 48.9606C19.9438 52.5403 17.0318 55.4523 13.4521 55.4523ZM13.4521 43.6009C10.4964 43.6009 8.09185 46.0055 8.09185 48.9606C8.09185 51.9157 10.4964 54.3203 13.4521 54.3203C16.4072 54.3203 18.8117 51.9157 18.8117 48.9606C18.8117 46.0055 16.4072 43.6009 13.4521 43.6009Z" fill="black"/>
</g>
<g id="Group_23">
<path id="Vector_20" d="M13.4525 51.5796C14.8986 51.5796 16.071 50.4073 16.071 48.9611C16.071 47.515 14.8986 46.3426 13.4525 46.3426C12.0063 46.3426 10.834 47.515 10.834 48.9611C10.834 50.4073 12.0063 51.5796 13.4525 51.5796Z" fill="white"/>
</g>
<g id="Group_24">
<path id="Vector_21" d="M44.4521 54.8875C47.7251 54.8875 50.3785 52.2342 50.3785 48.9611C50.3785 45.688 47.7251 43.0347 44.4521 43.0347C41.179 43.0347 38.5256 45.688 38.5256 48.9611C38.5256 52.2342 41.179 54.8875 44.4521 54.8875Z" fill="#283E42"/>
<path id="Vector_22" d="M44.4521 55.4523C40.8723 55.4523 37.9603 52.5403 37.9603 48.9606C37.9603 45.3808 40.8723 42.4688 44.4521 42.4688C48.0318 42.4688 50.9438 45.3808 50.9438 48.9606C50.9438 52.5403 48.0318 55.4523 44.4521 55.4523ZM44.4521 43.6009C41.497 43.6009 39.0924 46.0055 39.0924 48.9606C39.0924 51.9157 41.497 54.3203 44.4521 54.3203C47.4072 54.3203 49.8117 51.9157 49.8117 48.9606C49.8117 46.0055 47.4072 43.6009 44.4521 43.6009Z" fill="black"/>
</g>
<g id="Group_25">
<path id="Vector_23" d="M44.4521 51.5796C45.8983 51.5796 47.0706 50.4073 47.0706 48.9611C47.0706 47.515 45.8983 46.3426 44.4521 46.3426C43.006 46.3426 41.8336 47.515 41.8336 48.9611C41.8336 50.4073 43.006 51.5796 44.4521 51.5796Z" fill="white"/>
</g>
<g id="Group_26">
<path id="Vector_24" d="M44.9424 39.2595H42.5997C42.2869 39.2595 42.0337 39.0063 42.0337 38.6934C42.0337 38.3805 42.2869 38.1274 42.5997 38.1274H44.9424C45.2552 38.1274 45.5084 38.3805 45.5084 38.6934C45.5084 39.0063 45.2552 39.2595 44.9424 39.2595Z" fill="black"/>
</g>
</g>
</g>
</g>
</g>
</svg>
