<svg width="60" height="60" viewBox="0 0 60 60" fill="none" xmlns="http://www.w3.org/2000/svg">
<g id="secure-payment_8633738 1">
<g id="Group">
<g id="Group_2">
<g id="Group_3">
<path id="Vector" d="M57.4225 6.20485V37.1134C57.4225 38.1334 56.5997 38.9649 55.5711 38.9649H4.4254C3.4054 38.9649 2.57397 38.1334 2.57397 37.1134V6.20485C2.57397 5.18485 3.4054 4.35342 4.4254 4.35342H55.5711C56.5997 4.35342 57.4225 5.18485 57.4225 6.20485Z" fill="white"/>
</g>
<g id="Group_4">
<path id="Vector_2" d="M2.57568 12.0737H57.432V19.0054H2.57568V12.0737Z" fill="#E6E6EF"/>
</g>
<g id="Group_5">
<path id="Vector_3" d="M55.5111 38.9648H33.2083C35.4197 35.0991 39.5854 32.4934 44.3511 32.4934C49.1254 32.4934 53.2911 35.0991 55.5111 38.9648Z" fill="#E6E6EF"/>
</g>
<g id="Group_6">
<path id="Vector_4" d="M34.1083 30.8391V38.9648H5.53113V30.8391C5.53113 28.8591 7.13398 27.2563 9.08827 27.2563C9.34541 27.2563 9.60256 27.282 9.85113 27.342C10.2283 27.4191 10.6311 27.462 11.0683 27.462C13.9397 27.462 17.0597 25.6877 17.9511 25.1391C18.5168 24.7963 19.1597 24.6163 19.8197 24.6163C20.4797 24.6163 21.1226 24.7963 21.6883 25.1391C22.5711 25.6877 25.6911 27.462 28.5711 27.462C29.0083 27.462 29.4197 27.4191 29.7968 27.342C30.0454 27.282 30.294 27.2563 30.5511 27.2563C32.514 27.2563 34.1083 28.8591 34.1083 30.8391Z" fill="#E6E6EF"/>
</g>
<g id="Group_7">
<path id="Vector_5" d="M50.5225 25.1306V29.5791C50.5225 30.1363 50.0682 30.5991 49.5025 30.5991H9.76536C9.19965 30.5991 8.74536 30.1363 8.74536 29.5791V25.1306C8.74536 24.5649 9.19965 24.1106 9.76536 24.1106H49.5025C50.0682 24.1106 50.5225 24.5649 50.5225 25.1306Z" fill="#FEBC00"/>
</g>
<g id="Group_8">
<path id="Vector_6" d="M2.57568 10.1606H57.432V17.0923H2.57568V10.1606Z" fill="#AF7EFF"/>
</g>
<g id="Group_9">
<path id="Vector_7" d="M46.5026 28.4983C46.1477 28.4983 45.8597 28.2103 45.8597 27.8554V26.8534C45.8597 26.4986 46.1477 26.2106 46.5026 26.2106C46.8575 26.2106 47.1455 26.4986 47.1455 26.8534V27.8554C47.1455 28.2103 46.8575 28.4983 46.5026 28.4983Z" fill="white"/>
</g>
<g id="Group_10">
<path id="Vector_8" d="M42.7294 28.4983C42.3745 28.4983 42.0865 28.2103 42.0865 27.8554V26.8534C42.0865 26.4986 42.3745 26.2106 42.7294 26.2106C43.0843 26.2106 43.3723 26.4986 43.3723 26.8534V27.8554C43.3723 28.2103 43.0843 28.4983 42.7294 28.4983Z" fill="white"/>
</g>
<g id="Group_11">
<path id="Vector_9" d="M38.9554 28.4983C38.6005 28.4983 38.3125 28.2103 38.3125 27.8554V26.8534C38.3125 26.4986 38.6005 26.2106 38.9554 26.2106C39.3102 26.2106 39.5982 26.4986 39.5982 26.8534V27.8554C39.5982 28.2103 39.3102 28.4983 38.9554 28.4983Z" fill="white"/>
</g>
</g>
<g id="Group_12">
<g id="Group_13">
<path id="Vector_10" d="M34.0996 30.5991H9.76536C9.19965 30.5991 8.74536 30.1363 8.74536 29.5791V27.2734C8.85679 27.2648 8.96822 27.2563 9.08822 27.2563C9.34536 27.2563 9.6025 27.282 9.85108 27.342C10.2282 27.4191 10.6311 27.462 11.0682 27.462C13.9396 27.462 17.0596 25.6877 17.9511 25.1391C18.5168 24.7963 19.1596 24.6163 19.8196 24.6163C20.4796 24.6163 21.1225 24.7963 21.6882 25.1391C22.5711 25.6877 25.6911 27.462 28.5711 27.462C29.0082 27.462 29.4196 27.4191 29.7968 27.342C30.0454 27.282 30.2939 27.2563 30.5511 27.2563C32.4368 27.2563 33.9796 28.7306 34.0996 30.5991Z" fill="#E29C00"/>
</g>
<g id="Group_14">
<path id="Vector_11" d="M30.3445 29.8517C30.96 29.7171 31.5368 30.2057 31.5368 30.8357V41.9254C31.5368 45.4714 29.8097 48.7937 26.9082 50.8268L20.394 55.3903C20.0477 55.6328 19.5874 55.6328 19.2411 55.3903L12.7345 50.8277C9.83396 48.7945 8.10596 45.4723 8.10596 41.9263V30.8357C8.10596 30.2057 8.68281 29.7171 9.29824 29.8517C13.2797 30.7234 17.7857 28.26 19.2942 27.3351C19.6182 27.1363 20.0168 27.1363 20.34 27.3351C21.8502 28.26 26.3614 30.7234 30.3445 29.8517Z" fill="white"/>
</g>
<g id="Group_15">
<g id="Group_16">
<path id="Vector_12" d="M19.8214 44.3623C22.5519 44.3623 24.7654 42.1488 24.7654 39.4183C24.7654 36.6878 22.5519 34.4743 19.8214 34.4743C17.0909 34.4743 14.8774 36.6878 14.8774 39.4183C14.8774 42.1488 17.0909 44.3623 19.8214 44.3623Z" fill="#84D189"/>
</g>
<g id="Group_17">
<g id="Group_18">
<path id="Vector_13" d="M19.3045 40.7529C19.1262 40.7529 18.9488 40.6791 18.822 40.5343L18.1251 39.7423C17.8911 39.4757 17.9168 39.0694 18.1834 38.8354C18.4508 38.6006 18.8562 38.6263 19.0911 38.8937L19.3825 39.2246L20.6331 38.2234C20.9108 38.0023 21.3154 38.046 21.5374 38.3237C21.7594 38.6014 21.714 39.0051 21.4371 39.2271L19.7065 40.6114C19.5882 40.7066 19.446 40.7529 19.3045 40.7529Z" fill="white"/>
</g>
</g>
</g>
</g>
<g id="Group_19">
<g id="Group_20">
<path id="Vector_14" d="M54.6497 45.3506C54.6497 51.0386 50.0417 55.6466 44.3537 55.6466C38.6777 55.6466 34.0706 51.0386 34.0706 45.3506C34.0706 39.6746 38.6777 35.0674 44.3537 35.0674C50.0417 35.0674 54.6497 39.6754 54.6497 45.3506Z" fill="#FF564C"/>
</g>
<g id="Group_21">
<path id="Vector_15" d="M51.6943 45.3523C51.6943 49.4066 48.4097 52.6911 44.3554 52.6911C40.3097 52.6911 37.0251 49.4066 37.0251 45.3523C37.0251 41.3066 40.3097 38.022 44.3554 38.022C48.4097 38.0229 51.6943 41.3066 51.6943 45.3523Z" fill="white"/>
</g>
<g id="Group_22">
<path id="Vector_16" d="M58.0663 6.20486C58.0663 4.83 56.9469 3.71057 55.572 3.71057H4.42629C3.05144 3.71057 1.93201 4.83 1.93201 6.20486V37.1134C1.93201 38.4883 3.05144 39.6077 4.42629 39.6077H7.46401V41.9246C7.46401 45.6763 9.29658 49.2009 12.366 51.3523L18.8726 55.9157C19.1554 56.1137 19.4872 56.2131 19.8189 56.2131C20.1506 56.2131 20.4806 56.1137 20.7643 55.9157L27.2794 51.3523C30.3489 49.2009 32.1823 45.6763 32.1823 41.9246V39.6077H35.0786C34.0406 41.2791 33.4303 43.242 33.4303 45.3506C33.4303 51.3823 38.3323 56.2894 44.3563 56.2894C50.388 56.2894 55.2952 51.3823 55.2952 45.3506C55.2952 43.2429 54.684 41.2791 53.6451 39.6077H55.5737C56.9486 39.6077 58.068 38.4883 58.068 37.1134C58.0663 30.6257 58.0714 12.69 58.0663 6.20486ZM43.7151 16.4494L46.4031 10.8034H51.9909L49.3029 16.4494H43.7151ZM36.6969 16.4494L39.3909 10.8034H44.9794L42.2914 16.4494H36.6969ZM29.6837 16.4494L32.3717 10.8034H37.9663L35.2723 16.4494H29.6837ZM22.6654 16.4494L25.3603 10.8034H30.948L28.26 16.4494H22.6654ZM15.6531 16.4494L18.3412 10.8034H23.9366L21.2417 16.4494H15.6531ZM8.64172 16.4494L11.3297 10.8034H16.9174L14.2294 16.4494H8.64172ZM3.21772 16.4494V10.8034H9.90601L7.21801 16.4494H3.21772ZM53.4146 10.8034H56.7797V16.4494H50.7257L53.4146 10.8034ZM4.42629 4.99629H55.572C56.238 4.99629 56.7806 5.53886 56.7806 6.20486V9.51771H3.21686V6.20486C3.21686 5.53886 3.75944 4.99629 4.42629 4.99629ZM30.894 41.9254C30.894 45.2589 29.2663 48.3891 26.5389 50.3006L20.0237 54.864C19.8986 54.9523 19.7323 54.9506 19.6097 54.864L13.1031 50.3006C10.3766 48.39 8.74886 45.2589 8.74886 41.9254V30.8357C8.74886 30.7226 8.79944 30.618 8.88686 30.5469C8.92458 30.516 8.99658 30.4723 9.09172 30.4723C9.11315 30.4723 9.13629 30.4749 9.16029 30.48C13.3106 31.392 17.8637 28.9663 19.6303 27.8829C19.7486 27.8109 19.8883 27.8126 20.0049 27.8829C21.7714 28.9663 26.3271 31.3869 30.4817 30.4809C30.6129 30.4543 30.7097 30.5109 30.756 30.5486C30.8443 30.6197 30.894 30.7243 30.894 30.8366V41.9254ZM44.3546 55.0037C39.0394 55.0037 34.7143 50.6734 34.7143 45.3506C34.7143 40.0346 39.0394 35.7103 44.3546 35.7103C49.6774 35.7103 54.0077 40.0346 54.0077 45.3506C54.0069 50.6734 49.6774 55.0037 44.3546 55.0037ZM55.5711 38.322H52.7169C50.7086 35.9417 47.7069 34.4246 44.3537 34.4246C41.0049 34.4246 38.0066 35.9426 36.0009 38.322H32.1797V30.8357C32.1797 30.3317 31.9543 29.862 31.5617 29.5457C31.1777 29.2363 30.6831 29.1206 30.2066 29.2234C26.4069 30.0566 21.9514 27.5683 20.676 26.7857C20.1472 26.4617 19.488 26.4609 18.9574 26.7866C17.6837 27.5683 13.2343 30.0557 9.43544 29.2234C8.96144 29.1206 8.46515 29.2363 8.08115 29.5449C7.68858 29.8611 7.46315 30.3309 7.46315 30.8349V38.3211H4.42629C3.76029 38.3211 3.21772 37.7786 3.21772 37.1126V17.7351H56.7806V37.1134C56.7806 37.7803 56.238 38.322 55.5711 38.322Z" fill="#24262D"/>
<path id="Vector_17" d="M24.0334 20.1874H8.74881C8.39396 20.1874 8.10596 20.4754 8.10596 20.8303C8.10596 21.1852 8.39396 21.4732 8.74881 21.4732H24.0334C24.3882 21.4732 24.6762 21.1852 24.6762 20.8303C24.6762 20.4754 24.3882 20.1874 24.0334 20.1874Z" fill="#24262D"/>
<path id="Vector_18" d="M19.8215 33.8314C16.74 33.8314 14.2338 36.3377 14.2338 39.4183C14.2338 42.4988 16.74 45.0051 19.8215 45.0051C22.9021 45.0051 25.4083 42.4988 25.4083 39.4183C25.4083 36.3377 22.9021 33.8314 19.8215 33.8314ZM19.8215 43.7194C17.4489 43.7194 15.5195 41.79 15.5195 39.4183C15.5195 37.0466 17.4489 35.1171 19.8215 35.1171C22.1932 35.1171 24.1226 37.0466 24.1226 39.4183C24.1226 41.79 22.1932 43.7194 19.8215 43.7194Z" fill="#24262D"/>
<path id="Vector_19" d="M44.3589 42.3086C45.0215 42.3086 45.5606 42.8477 45.5606 43.5111C45.5606 43.866 45.8486 44.154 46.2035 44.154C46.5583 44.154 46.8463 43.866 46.8463 43.5111C46.8463 42.3626 46.0603 41.4034 45.0017 41.118V40.7091C45.0017 40.3543 44.7137 40.0663 44.3589 40.0663C44.004 40.0663 43.716 40.3543 43.716 40.7091V41.118C42.6575 41.4034 41.8732 42.3634 41.8732 43.5111C41.8732 44.8834 42.9883 45.9994 44.3589 45.9994C45.0215 45.9994 45.5606 46.5386 45.5606 47.202C45.5606 47.8654 45.0215 48.4046 44.3589 48.4046C43.6972 48.4046 43.1589 47.8654 43.1589 47.202C43.1589 46.8471 42.8709 46.5591 42.516 46.5591C42.1612 46.5591 41.8732 46.8471 41.8732 47.202C41.8732 48.3506 42.6583 49.3097 43.716 49.5951V50.0049C43.716 50.3597 44.004 50.6477 44.3589 50.6477C44.7137 50.6477 45.0017 50.3597 45.0017 50.0049V49.596C46.0612 49.3106 46.8463 48.3506 46.8463 47.202C46.8463 45.8297 45.7303 44.7137 44.3589 44.7137C43.6972 44.7137 43.1589 44.1746 43.1589 43.5111C43.1589 42.8486 43.6972 42.3086 44.3589 42.3086Z" fill="#24262D"/>
</g>
</g>
</g>
</g>
</svg>
