<svg width="16" height="16" viewBox="0 0 16 16" fill="none" xmlns="http://www.w3.org/2000/svg">
<g id="icon/star">
<path id="star" d="M8.64135 3.064L9.93603 5.67533C10.0334 5.872 10.2214 6.00801 10.4394 6.03935L13.428 6.47131C13.976 6.55065 14.1947 7.22266 13.798 7.60799L11.6374 9.70467C11.4794 9.858 11.4073 10.0787 11.4447 10.2953L11.9386 13.1647C12.0386 13.7467 11.4273 14.1907 10.9033 13.9167L8.31135 12.56C8.11669 12.458 7.88467 12.458 7.69067 12.56L5.10066 13.9153C4.57599 14.19 3.96264 13.7453 4.06331 13.162L4.55737 10.2953C4.5947 10.0787 4.52266 9.858 4.36466 9.70467L2.20401 7.60799C1.80668 7.22266 2.0253 6.55065 2.57397 6.47131L5.56266 6.03935C5.77999 6.00801 5.96799 5.872 6.06599 5.67533L7.36067 3.064C7.62134 2.534 8.37868 2.534 8.64135 3.064Z" fill="#FFC107"/>
</g>
</svg>
