<svg width="60" height="60" viewBox="0 0 60 60" fill="none" xmlns="http://www.w3.org/2000/svg">
<g id="support_9426658 1">
<g id="Layer 1">
<path id="Vector" d="M37.7247 55.3739C37.7247 56.0185 37.5335 56.6487 37.1754 57.1846C36.8173 57.7206 36.3083 58.1383 35.7127 58.385C35.1172 58.6317 34.4619 58.6963 33.8296 58.5705C33.1974 58.4448 32.6167 58.1344 32.1608 57.6786C31.705 57.2228 31.3945 56.6421 31.2687 56.0099C31.1429 55.3777 31.2074 54.7224 31.454 54.1268C31.7007 53.5312 32.1183 53.0222 32.6543 52.664C33.1902 52.3058 33.8203 52.1146 34.4649 52.1145C34.893 52.1144 35.3169 52.1987 35.7124 52.3625C36.1079 52.5262 36.4673 52.7663 36.77 53.069C37.0727 53.3717 37.3128 53.731 37.4766 54.1265C37.6404 54.522 37.7247 54.9459 37.7247 55.3739Z" fill="#864FE0"/>
<path id="Vector_2" d="M35.0262 58.5842C34.5576 58.6665 34.0766 58.6452 33.6171 58.5219C33.1576 58.3985 32.7307 58.176 32.3663 57.8701C32.0019 57.5641 31.7089 57.1821 31.5079 56.7509C31.3069 56.3197 31.2028 55.8496 31.2028 55.3739C31.2028 54.8981 31.3069 54.4281 31.5079 53.9968C31.7089 53.5656 32.0019 53.1836 32.3663 52.8776C32.7307 52.5717 33.1576 52.3492 33.6171 52.2259C34.0766 52.1025 34.5576 52.0812 35.0262 52.1636C34.2704 52.2954 33.5854 52.6896 33.0917 53.2769C32.598 53.8641 32.3273 54.6067 32.3273 55.3739C32.3273 56.141 32.598 56.8836 33.0917 57.4709C33.5854 58.0581 34.2704 58.4523 35.0262 58.5842Z" fill="#AF7EFF"/>
<path id="Vector_3" d="M53.086 15.3021L49.5061 16.7338C47.5283 13.3074 44.6834 10.4621 41.2573 8.48384C37.8312 6.50558 33.9447 5.4641 29.9885 5.4641C26.0323 5.4641 22.1458 6.50558 18.7198 8.48384C15.2937 10.4621 12.4487 13.3074 10.471 16.7338L6.89124 15.3022C18.5679 -3.35355 41.8146 -3.20297 53.086 15.3021Z" fill="#393939"/>
<path id="Vector_4" d="M8.11678 15.7923L6.89124 15.3022C18.5679 -3.35401 41.8146 -3.20296 53.0865 15.3022L51.903 15.7754L51.3383 14.7392C48.8219 10.9607 45.7316 7.98013 42.1374 5.86806C38.4886 3.70587 34.3289 2.55657 30.0877 2.53876C21.7155 2.53876 13.973 6.96845 8.65526 14.7457L8.11678 15.7923Z" fill="#343434"/>
<path id="Vector_5" d="M56.1595 40.8388H54.3666V31.1122H56.1595C56.3957 31.1122 56.6295 31.1587 56.8476 31.2491C57.0658 31.3395 57.264 31.4719 57.4309 31.6389C57.5979 31.8058 57.7303 32.004 57.8207 32.2222C57.911 32.4403 57.9576 32.6741 57.9576 32.9103V39.0409C57.9575 39.5178 57.7681 39.9751 57.4309 40.3122C57.0937 40.6494 56.6364 40.8388 56.1595 40.8388Z" fill="#FF5959"/>
<path id="Vector_6" d="M10.1484 45.3878H8.27715C7.57803 45.3857 6.90814 45.1071 6.4138 44.6127C5.91946 44.1183 5.64083 43.4484 5.63879 42.7493V29.34C5.64083 28.6409 5.91946 27.971 6.4138 27.4766C6.90814 26.9823 7.57803 26.7036 8.27715 26.7015H10.1484V45.3878Z" fill="#864FE0"/>
<path id="Vector_7" d="M9.59551 45.3878H8.27715C7.57803 45.3857 6.90814 45.1071 6.4138 44.6127C5.91946 44.1183 5.64083 43.4484 5.63879 42.7493V29.34C5.64083 28.6409 5.91946 27.971 6.4138 27.4766C6.90814 26.9823 7.57803 26.7036 8.27715 26.7015H9.59551C8.89639 26.7036 8.2265 26.9823 7.73216 27.4766C7.23781 27.971 6.95919 28.6409 6.95715 29.34V42.7493C6.95919 43.4484 7.23781 44.1183 7.73216 44.6127C8.2265 45.1071 8.89639 45.3857 9.59551 45.3878Z" fill="#AF7EFF"/>
<path id="Vector_8" d="M2.04248 39.0408V32.9101C2.04248 32.4333 2.23191 31.9759 2.5691 31.6387C2.9063 31.3016 3.36363 31.1121 3.84049 31.1121H5.63346V40.8387H3.84049C3.36365 40.8387 2.90633 40.6493 2.56915 40.3121C2.23196 39.9749 2.04251 39.5176 2.04248 39.0408Z" fill="#FF5959"/>
<path id="Vector_9" d="M4.79568 40.8388H3.84049C3.60437 40.8388 3.37056 40.7923 3.15242 40.7019C2.93428 40.6116 2.73607 40.4791 2.5691 40.3122C2.40214 40.1452 2.2697 39.947 2.17935 39.7289C2.08899 39.5107 2.04248 39.2769 2.04248 39.0408V32.9101C2.04248 32.4333 2.23191 31.9759 2.5691 31.6387C2.9063 31.3016 3.36363 31.1121 3.84049 31.1121H4.79568C4.31882 31.1121 3.86149 31.3016 3.5243 31.6387C3.18711 31.9759 2.99768 32.4333 2.99768 32.9101V39.0408C2.99768 39.2769 3.04418 39.5107 3.13454 39.7289C3.2249 39.947 3.35734 40.1452 3.5243 40.3122C3.69126 40.4791 3.88947 40.6116 4.10762 40.7019C4.32576 40.7923 4.55957 40.8388 4.79568 40.8388Z" fill="#E63A57"/>
<path id="Vector_10" d="M49.8516 26.7015H51.7229C52.422 26.7036 53.0919 26.9823 53.5863 27.4766C54.0806 27.971 54.3592 28.6409 54.3613 29.34V42.7493C54.3592 43.4484 54.0806 44.1183 53.5863 44.6127C53.0919 45.1071 52.422 45.3857 51.7229 45.3878H49.8516V26.7015Z" fill="#864FE0"/>
<path id="Vector_11" d="M53.0428 42.7493V29.34C53.0407 28.6409 52.7621 27.971 52.2678 27.4766C51.7734 26.9823 51.1035 26.7036 50.4044 26.7015H51.7228C52.4219 26.7036 53.0918 26.9823 53.5861 27.4766C54.0805 27.971 54.3591 28.6409 54.3611 29.34V42.7493C54.3591 43.4484 54.0805 44.1183 53.5861 44.6127C53.0918 45.1071 52.4219 45.3857 51.7228 45.3878H50.4044C51.1035 45.3857 51.7734 45.1071 52.2678 44.6127C52.7621 44.1183 53.0407 43.4484 53.0428 42.7493Z" fill="#AF7EFF"/>
<path id="Vector_12" d="M57.0024 39.0408V32.9101C57.0024 32.4333 56.8129 31.9759 56.4757 31.6387C56.1385 31.3016 55.6812 31.1121 55.2043 31.1121H56.1595C56.3957 31.1121 56.6295 31.1586 56.8476 31.249C57.0658 31.3393 57.264 31.4718 57.4309 31.6387C57.5979 31.8057 57.7303 32.0039 57.8207 32.2221C57.911 32.4402 57.9576 32.674 57.9576 32.9101V39.0408C57.9576 39.2769 57.911 39.5107 57.8207 39.7289C57.7303 39.947 57.5979 40.1452 57.4309 40.3122C57.264 40.4791 57.0658 40.6116 56.8476 40.7019C56.6295 40.7923 56.3957 40.8388 56.1595 40.8388H55.2043C55.6812 40.8388 56.1385 40.6494 56.4757 40.3122C56.8129 39.975 57.0024 39.5177 57.0024 39.0408Z" fill="#E63A57"/>
<path id="Vector_13" d="M39.9548 44.8095L34.0127 43.1193C31.2484 44.1201 28.2105 44.0556 25.4912 42.9384C22.7718 41.8212 20.566 39.7314 19.3037 37.0763C18.0414 34.4212 17.8131 31.3912 18.6633 28.5769C19.5134 25.7627 21.3812 23.3659 23.9024 21.8538C26.4236 20.3417 29.4176 19.8227 32.3006 20.398C35.1837 20.9733 37.7492 22.6016 39.497 24.9655C41.2447 27.3295 42.0496 30.2595 41.7545 33.1846C41.4595 36.1096 40.0857 38.82 37.9011 40.7872L39.9548 44.8095Z" fill="#FFDF40"/>
<path id="Vector_14" d="M31.1242 43.7643C30.7542 43.7994 30.3794 43.8186 30.0001 43.8186C26.8731 43.8088 23.8776 42.5597 21.6699 40.3451C19.4623 38.1305 18.2227 35.1311 18.2227 32.0041C18.2227 28.8771 19.4623 25.8777 21.6699 23.6631C23.8776 21.4485 26.8731 20.1994 30.0001 20.1895C30.3808 20.1895 30.7572 20.2083 31.1287 20.2435C28.2046 20.5243 25.49 21.8843 23.5144 24.0583C21.5388 26.2323 20.4439 29.0643 20.4433 32.0018C20.4428 34.9394 21.5366 37.7718 23.5114 39.9465C25.4861 42.1213 28.2002 43.4824 31.1242 43.7643Z" fill="#FFBE40"/>
<path id="Vector_15" d="M56.9773 30.3846V27.5735C56.9774 22.2357 55.3946 17.0177 52.4291 12.5794C49.4636 8.14112 45.2485 4.6819 40.317 2.63919C35.3855 0.59648 29.9589 0.0620308 24.7237 1.10343C19.4884 2.14483 14.6795 4.71529 10.9051 8.48978C8.39108 10.99 6.39791 13.9641 5.04099 17.2398C3.68407 20.5155 2.99036 24.0279 3.00002 27.5735V30.3922C2.48217 30.5684 2.03237 30.9021 1.71358 31.3466C1.39479 31.7911 1.22297 32.3241 1.22217 32.8711V39.0018C1.22291 39.6959 1.49899 40.3615 1.98984 40.8523C2.48068 41.3432 3.1462 41.6193 3.84037 41.6201H4.81854V42.7099C4.81959 43.6269 5.18434 44.5061 5.83276 45.1545C6.48119 45.8029 7.36033 46.1676 8.27732 46.1686H10.1485C10.366 46.1686 10.5747 46.0822 10.7285 45.9283C10.8823 45.7745 10.9688 45.5659 10.9688 45.3483V26.663C10.9688 26.4454 10.8823 26.2368 10.7285 26.0829C10.5747 25.9291 10.366 25.8427 10.1485 25.8427H8.27732C7.36032 25.8437 6.48118 26.2085 5.83276 26.8569C5.18434 27.5053 4.81959 28.3845 4.81854 29.3015V30.2533H4.64064V27.5735C4.63641 23.6631 5.5426 19.8053 7.28744 16.3057L10.166 17.457C10.3492 17.5303 10.5526 17.5351 10.7391 17.4705C10.9255 17.406 11.0823 17.2763 11.1809 17.1054C13.0866 13.8036 15.828 11.0616 19.1295 9.15524C22.4309 7.24886 26.1761 6.24522 29.9884 6.24522C33.8008 6.24522 37.5459 7.24886 40.8474 9.15524C44.1488 11.0616 46.8902 13.8036 48.796 17.1054C48.8946 17.2762 49.0515 17.4058 49.2378 17.4704C49.4242 17.5349 49.6276 17.5302 49.8108 17.457L52.6895 16.3057C54.4343 19.8054 55.3405 23.6632 55.3363 27.5736V30.2534H55.1812V29.3016C55.1801 28.3846 54.8154 27.5054 54.1669 26.857C53.5185 26.2086 52.6394 25.8438 51.7224 25.8428H49.8516C49.634 25.8428 49.4254 25.9292 49.2715 26.083C49.1177 26.2369 49.0313 26.4455 49.0313 26.6631V47.1429C49.0241 47.597 48.8831 48.0389 48.6259 48.4132C48.3687 48.7875 48.0067 49.0776 47.5854 49.2471L37.9989 53.2999C37.4927 52.4211 36.6784 51.7615 35.7136 51.4488C34.7489 51.1361 33.7024 51.1926 32.777 51.6074C31.8515 52.0222 31.113 52.7657 30.7045 53.694C30.2959 54.6222 30.2464 55.669 30.5656 56.6316C30.8848 57.5942 31.5499 58.4041 32.4321 58.9043C33.3143 59.4046 34.3508 59.5595 35.3407 59.3392C36.3307 59.1189 37.2036 58.539 37.7904 57.7118C38.3772 56.8847 38.636 55.8692 38.5169 54.862L48.2242 50.7583C48.9428 50.4636 49.5585 49.9633 49.9939 49.3201C50.4293 48.677 50.6652 47.9196 50.6719 47.1429V46.1694H51.7228C52.6398 46.1684 53.519 45.8037 54.1674 45.1553C54.8158 44.5069 55.1806 43.6277 55.1816 42.7108V41.6209H56.1598C56.854 41.6201 57.5195 41.344 58.0103 40.8532C58.5012 40.3623 58.7772 39.6968 58.778 39.0026V32.8711C58.7772 32.32 58.6027 31.7832 58.2795 31.3368C57.9563 30.8905 57.5006 30.5573 56.9773 30.3846ZM6.45916 29.3015C6.45972 28.8194 6.65145 28.3573 6.9923 28.0164C7.33316 27.6756 7.79529 27.4839 8.27732 27.4833H9.32814V44.5288H8.27732C7.7953 44.5283 7.33317 44.3366 6.99231 43.9957C6.65146 43.6549 6.45972 43.1928 6.45916 42.7108V29.3015ZM4.81854 39.9799H3.84037C3.58118 39.9796 3.33269 39.8765 3.14942 39.6932C2.96615 39.5099 2.86307 39.2614 2.86279 39.0022V32.8711C2.86304 32.6119 2.96611 32.3634 3.14939 32.1801C3.33266 31.9968 3.58117 31.8937 3.84037 31.8934H4.81854V39.9799ZM49.8516 15.674C47.7589 12.2886 44.8356 9.49435 41.3593 7.55643C37.8831 5.61851 33.9692 4.60126 29.9892 4.60126C26.0093 4.60126 22.0954 5.61851 18.6191 7.55643C15.1429 9.49435 12.2196 12.2886 10.1269 15.674L8.07213 14.8521C12.4676 7.30782 20.6454 2.22563 29.9883 2.22563C39.3312 2.22563 47.5099 7.30771 51.9059 14.8521L49.8516 15.674ZM34.4649 57.7744C33.9824 57.7744 33.5109 57.6313 33.1097 57.3633C32.7086 57.0953 32.396 56.7144 32.2114 56.2687C32.0268 55.823 31.9785 55.3325 32.0726 54.8594C32.1667 54.3862 32.399 53.9516 32.7401 53.6105C33.0813 53.2694 33.5159 53.0371 33.989 52.943C34.4622 52.8489 34.9526 52.8972 35.3983 53.0818C35.844 53.2664 36.2249 53.579 36.4929 53.9801C36.761 54.3812 36.904 54.8528 36.904 55.3352C36.9033 55.9819 36.6461 56.6019 36.1888 57.0592C35.7315 57.5165 35.1115 57.7737 34.4649 57.7744ZM53.5409 42.7108C53.5403 43.1928 53.3486 43.6549 53.0077 43.9957C52.6669 44.3366 52.2047 44.5283 51.7227 44.5288H50.6719V27.4833H51.7228C52.2049 27.4839 52.667 27.6756 53.0079 28.0164C53.3487 28.3573 53.5404 28.8194 53.541 29.3015L53.5409 42.7108ZM57.1372 39.0022C57.137 39.2614 57.0339 39.5099 56.8506 39.6932C56.6674 39.8765 56.4189 39.9796 56.1597 39.9799H55.1815V31.894H56.1597C56.4189 31.8943 56.6674 31.9974 56.8507 32.1807C57.0339 32.364 57.137 32.6125 57.1372 32.8717V39.0022ZM29.5033 35.1751V36.9197C29.5033 37.1373 29.4168 37.3459 29.263 37.4997C29.1092 37.6536 28.9005 37.74 28.6829 37.74H22.7833C22.6238 37.74 22.4678 37.6935 22.3343 37.6063C22.2008 37.519 22.0957 37.3947 22.0318 37.2486C21.9678 37.1026 21.9478 36.941 21.9743 36.7837C22.0007 36.6265 22.0724 36.4803 22.1806 36.3632C23.9899 34.4044 26.9597 31.1677 27.2262 30.821C27.6663 30.2489 27.8626 29.7245 27.8626 29.1209C27.8623 28.8137 27.7956 28.5102 27.6669 28.2313C27.5383 27.9524 27.3509 27.7046 27.1175 27.5049C26.884 27.3052 26.6102 27.1584 26.3147 27.0745C26.0192 26.9906 25.7091 26.9716 25.4056 27.0189C25.1021 27.0661 24.8124 27.1784 24.5564 27.3482C24.3004 27.5179 24.0841 27.741 23.9224 28.0022C23.7608 28.2634 23.6575 28.5564 23.6197 28.8613C23.582 29.1661 23.6106 29.4755 23.7037 29.7682C23.7691 29.9753 23.7498 30.1999 23.6499 30.3928C23.55 30.5857 23.3777 30.731 23.1708 30.797C22.9638 30.863 22.7392 30.8443 22.546 30.7449C22.3529 30.6454 22.2071 30.4735 22.1406 30.2667C21.9753 29.7483 21.9242 29.2003 21.9908 28.6603C22.0574 28.1203 22.24 27.601 22.5262 27.1383C22.8124 26.6755 23.1954 26.2802 23.6488 25.9795C24.1023 25.6787 24.6154 25.4797 25.1531 25.396C25.6907 25.3123 26.2401 25.346 26.7635 25.4947C27.2868 25.6434 27.7718 25.9037 28.1851 26.2576C28.5984 26.6115 28.9302 27.0506 29.1578 27.5449C29.3853 28.0391 29.5032 28.5768 29.5033 29.1209C29.5033 30.0836 29.1838 30.9669 28.5267 31.8213C28.2484 32.1832 26.0977 34.5312 24.655 36.0994H27.8626V35.1751C27.8626 34.9576 27.9491 34.7489 28.1029 34.5951C28.2567 34.4412 28.4654 34.3548 28.6829 34.3548C28.9005 34.3548 29.1092 34.4412 29.263 34.5951C29.4168 34.7489 29.5033 34.9576 29.5033 35.1751ZM37.5449 36.9197C37.5449 36.7021 37.4585 36.4935 37.3046 36.3397C37.1508 36.1858 36.9422 36.0994 36.7246 36.0994H36.1504V34.1557H36.7246C36.9422 34.1557 37.1508 34.0693 37.3046 33.9155C37.4585 33.7616 37.5449 33.553 37.5449 33.3354C37.5449 33.1178 37.4585 32.9092 37.3046 32.7554C37.1508 32.6015 36.9422 32.5151 36.7246 32.5151H36.1504C36.1504 32.5151 36.1496 26.1659 36.1494 26.1635C36.1481 25.9917 36.0927 25.8247 35.9913 25.6861C35.8898 25.5475 35.7474 25.4442 35.5841 25.391C35.4207 25.3377 35.2448 25.3371 35.0811 25.3893C34.9175 25.4414 34.7743 25.5437 34.6719 25.6817L29.3414 32.8459C29.2507 32.968 29.1956 33.1128 29.1825 33.2643C29.1693 33.4158 29.1985 33.568 29.2668 33.7039C29.3351 33.8398 29.4399 33.954 29.5694 34.0338C29.6988 34.1136 29.8479 34.1558 30 34.1557H34.5102V36.0994H33.9175C33.6999 36.0994 33.4913 36.1858 33.3374 36.3397C33.1836 36.4935 33.0972 36.7021 33.0972 36.9197C33.0972 37.1373 33.1836 37.3459 33.3374 37.4997C33.4913 37.6536 33.6999 37.74 33.9175 37.74H36.7246C36.9422 37.74 37.1508 37.6536 37.3046 37.4997C37.4585 37.3459 37.5449 37.1373 37.5449 36.9197ZM31.6329 32.5151L34.5102 28.6479V32.5151H31.6329ZM39.7306 45.5599C39.8842 45.6037 40.0473 45.6016 40.1997 45.5539C40.3522 45.5063 40.4875 45.4152 40.5889 45.2918C40.6903 45.1684 40.7535 45.018 40.7707 44.8592C40.7879 44.7004 40.7583 44.54 40.6856 44.3978L38.9106 40.9219C41.0994 38.7389 42.4091 35.8273 42.5904 32.7412C42.7718 29.6552 41.8121 26.6103 39.894 24.1859C37.976 21.7616 35.2335 20.1271 32.1885 19.5936C29.1436 19.0601 26.0088 19.6649 23.3808 21.2927C20.7527 22.9205 18.815 25.4578 17.9364 28.4217C17.0577 31.3855 17.2995 34.569 18.6158 37.3661C19.932 40.1632 22.2307 42.3787 25.0745 43.5909C27.9182 44.8032 31.1084 44.9275 34.0378 43.9402L39.7306 45.5599ZM33.7342 42.3092C31.1617 43.2405 28.3345 43.1806 25.8039 42.1409C23.2732 41.1012 21.2204 39.1563 20.0457 36.6854C18.8709 34.2145 18.6585 31.3947 19.4497 28.7757C20.2409 26.1567 21.9792 23.9262 24.3255 22.5191C26.6718 21.1119 29.4581 20.629 32.1411 21.1644C34.8241 21.6998 37.2116 23.2152 38.8381 25.4152C40.4645 27.6152 41.2135 30.342 40.9388 33.0641C40.6642 35.7862 39.3856 38.3085 37.3525 40.1392C37.2182 40.2601 37.1275 40.422 37.0947 40.5997C37.0618 40.7774 37.0885 40.961 37.1707 41.1219L38.3672 43.4666L34.2366 42.2917C34.0712 42.2446 33.8952 42.2508 33.7335 42.3092H33.7342Z" fill="black"/>
</g>
</g>
</svg>
